<?xml version="1.0" standalone="no"?>
<!DOCTYPE svg PUBLIC "-//W3C//DTD SVG 20010904//EN"
 "http://www.w3.org/TR/2001/REC-SVG-20010904/DTD/svg10.dtd">
<svg version="1.0" xmlns="http://www.w3.org/2000/svg"
 width="512.000000pt" height="512.000000pt" viewBox="0 0 512.000000 512.000000"
 preserveAspectRatio="xMidYMid meet">
<metadata>
Created by potrace 1.11, written by Peter Selinger 2001-2013
</metadata>
<g transform="translate(0.000000,512.000000) scale(0.100000,-0.100000)"
fill="#000000" stroke="none">
<path d="M3186 5019 c-50 -11 -123 -35 -163 -55 -76 -37 -209 -130 -218 -152
-5 -13 87 -112 105 -112 5 0 27 16 47 35 48 45 180 110 263 129 92 22 246 15
330 -13 78 -27 172 -79 219 -121 18 -16 37 -30 42 -30 11 0 109 97 109 107 0
8 -95 87 -129 107 -192 113 -398 149 -605 105z"/>
<path d="M704 4857 c-65 -35 -70 -39 -105 -92 l-34 -50 -3 -449 c-3 -486 0
-519 52 -577 37 -42 97 -78 144 -85 l42 -7 1 -91 c1 -111 3 -123 26 -155 48
-63 58 -66 264 -69 l189 -4 0 -558 0 -558 -72 -4 c-155 -8 -237 -91 -246 -247
l-4 -76 -222 2 c-188 3 -228 0 -265 -14 -55 -21 -124 -99 -140 -155 -9 -32
-11 -223 -9 -733 l3 -690 22 -36 c31 -50 70 -87 112 -107 31 -15 69 -17 266
-17 256 0 259 1 328 71 55 57 67 105 67 266 l0 138 1440 0 1440 0 0 -133 c0
-166 13 -217 72 -276 66 -65 108 -73 356 -69 206 3 207 3 249 30 59 39 90 75
108 127 13 38 15 142 15 716 0 758 2 739 -72 813 -65 66 -106 74 -358 70
l-210 -3 0 56 c0 171 -100 269 -276 269 l-62 0 -17 68 c-9 37 -18 77 -20 88
-2 10 -4 19 -5 19 -1 0 -9 32 -18 70 l-17 70 -73 3 -72 3 0 399 0 399 152 3
152 3 39 158 40 157 48 0 49 0 0 80 0 80 -320 0 -320 0 0 160 0 160 -80 0 -80
0 0 -160 0 -160 -320 0 -320 0 0 -80 0 -80 49 0 49 0 11 -47 c6 -27 14 -57 16
-68 2 -11 15 -60 28 -110 l23 -90 152 -3 152 -3 0 -399 0 -399 -72 -3 -72 -3
-21 -83 -20 -83 -42 86 -43 85 -545 0 -545 0 0 399 0 400 189 3 c173 3 192 5
217 24 60 44 69 67 72 184 l4 108 39 6 c44 7 115 48 139 79 8 11 25 38 37 61
22 40 22 47 23 481 0 498 -1 515 -68 579 -79 77 -7 71 -882 73 l-785 2 -41
-22z"/>
<path d="M3260 4710 c-82 -17 -213 -89 -226 -125 -4 -9 13 -34 46 -66 l52 -51
36 26 c65 44 112 59 194 59 66 1 85 -4 142 -32 36 -18 66 -36 66 -42 0 -21 25
-6 75 46 l53 54 -35 31 c-19 17 -50 39 -69 47 -18 9 -30 21 -27 26 3 6 1 7 -4
4 -6 -4 -30 0 -54 9 -48 17 -194 26 -249 14z"/>
<path d="M3280 4320 l0 -80 80 0 80 0 0 80 0 80 -80 0 -80 0 0 -80z"/>
</g>
</svg>
