<?xml version="1.0" standalone="no"?>
<!DOCTYPE svg PUBLIC "-//W3C//DTD SVG 20010904//EN"
 "http://www.w3.org/TR/2001/REC-SVG-20010904/DTD/svg10.dtd">
<svg version="1.0" xmlns="http://www.w3.org/2000/svg"
 width="3021.000000pt" height="3021.000000pt" viewBox="0 0 3021.000000 3021.000000"
 preserveAspectRatio="xMidYMid meet">
<metadata>
Created by potrace 1.14, written by Peter Selinger 2001-2017
</metadata>
<g transform="translate(0.000000,3021.000000) scale(0.100000,-0.100000)"
fill="#000000" stroke="none">
<path d="M22198 26905 c-2 -2 -21 -6 -43 -9 -169 -23 -445 -98 -595 -161 -101
-42 -380 -179 -483 -237 -205 -115 -629 -405 -751 -513 -6 -6 -31 -26 -56 -45
-25 -19 -49 -40 -55 -46 -5 -7 -48 -44 -95 -84 -184 -157 -551 -515 -810 -791
-69 -73 -134 -142 -145 -154 -62 -65 -269 -295 -316 -350 -19 -21 -41 -46 -49
-55 -31 -34 -131 -149 -152 -175 -12 -15 -31 -37 -42 -49 -12 -11 -32 -35 -46
-53 l-25 -32 -190 -6 c-104 -3 -237 -8 -295 -10 -220 -10 -328 -15 -405 -20
-44 -3 -118 -8 -165 -11 -47 -3 -105 -7 -130 -9 -25 -2 -85 -7 -135 -10 -49
-3 -110 -8 -135 -10 -42 -4 -87 -8 -230 -20 -30 -3 -70 -7 -90 -9 -19 -3 -70
-8 -112 -11 -43 -4 -90 -8 -105 -10 -16 -2 -57 -6 -93 -10 -56 -5 -221 -24
-370 -41 -25 -2 -61 -7 -80 -9 -19 -3 -51 -7 -70 -10 -19 -2 -123 -16 -230
-30 -107 -14 -206 -27 -220 -30 -14 -3 -45 -8 -70 -11 -62 -8 -101 -13 -130
-19 -46 -10 -65 -13 -120 -20 -30 -4 -64 -9 -75 -11 -45 -9 -132 -25 -160 -29
-16 -3 -111 -21 -210 -40 -99 -19 -191 -36 -205 -39 -14 -2 -65 -13 -115 -25
-49 -11 -101 -22 -115 -25 -241 -49 -942 -229 -1235 -316 -38 -12 -101 -30
-140 -41 -271 -77 -1163 -372 -1270 -419 -11 -5 -83 -32 -160 -61 -160 -59
-531 -204 -650 -254 -257 -108 -425 -179 -460 -194 -22 -10 -56 -25 -75 -34
-34 -15 -200 -89 -290 -129 -25 -11 -96 -45 -158 -74 -63 -30 -116 -54 -119
-54 -3 0 -168 -81 -366 -180 -332 -164 -463 -232 -631 -324 -34 -19 -86 -47
-116 -63 -198 -108 -664 -390 -915 -555 -186 -122 -156 -101 -315 -211 -74
-51 -145 -99 -157 -107 -11 -8 -51 -36 -87 -62 l-66 -47 -47 41 c-58 50 -172
149 -187 163 -6 6 -49 44 -96 85 -47 41 -90 79 -96 84 -6 6 -37 34 -69 61 -53
45 -91 78 -205 179 -20 17 -54 47 -76 66 -22 19 -71 62 -110 96 -80 71 -255
225 -299 263 -153 133 -271 236 -275 241 -3 3 -57 51 -120 105 -63 55 -128
112 -145 127 -16 15 -39 35 -51 45 -117 101 -156 135 -204 178 -31 28 -84 75
-119 105 -36 30 -69 60 -75 65 -6 6 -45 39 -86 75 -41 36 -84 74 -96 85 -12
11 -34 31 -50 44 -16 14 -68 59 -115 100 -47 42 -112 99 -144 126 -31 28 -67
59 -79 70 -12 11 -55 49 -96 85 -41 35 -77 67 -80 70 -3 3 -57 50 -120 105
-63 55 -131 114 -150 131 -19 17 -109 96 -200 175 -91 79 -184 162 -207 184
l-42 40 29 68 c16 37 29 68 29 70 0 1 2 9 5 17 27 79 50 186 64 305 9 81 9
338 -1 400 -4 28 -10 65 -13 83 -8 63 -14 97 -19 122 -3 14 -8 40 -11 58 -21
126 -121 237 -232 257 -17 3 -62 12 -99 21 -83 19 -102 24 -128 29 -11 3 -87
21 -170 40 -211 50 -496 116 -522 121 -16 3 -350 80 -478 110 -11 3 -31 7 -44
10 -12 3 -53 12 -90 20 -36 9 -77 18 -90 20 -14 3 -28 7 -31 9 -4 2 -21 7 -38
10 -33 6 -110 23 -249 56 -166 39 -251 58 -405 94 -87 20 -168 38 -180 41
-102 24 -137 8 -145 -67 -4 -34 2 -63 27 -129 71 -186 132 -346 141 -365 5
-11 51 -130 103 -265 158 -411 166 -434 176 -455 5 -11 20 -50 34 -87 14 -38
37 -96 50 -130 14 -35 75 -193 136 -353 61 -159 115 -299 120 -310 5 -11 57
-144 115 -295 58 -151 116 -300 127 -330 12 -30 29 -62 39 -71 21 -19 194 -78
258 -87 61 -9 315 -8 366 1 189 35 431 144 577 259 32 25 40 27 51 16 8 -7 62
-58 122 -113 60 -55 127 -117 149 -138 23 -22 73 -68 112 -103 39 -35 96 -88
126 -117 30 -28 75 -70 99 -92 50 -45 293 -270 325 -300 11 -11 67 -63 124
-115 57 -52 115 -106 130 -120 15 -14 76 -70 136 -126 60 -56 123 -113 139
-128 17 -15 77 -72 135 -125 58 -54 119 -110 135 -125 17 -16 75 -69 129 -119
54 -51 113 -105 130 -121 17 -15 83 -76 146 -135 63 -58 148 -137 190 -176 41
-38 100 -92 130 -120 30 -28 91 -85 135 -125 44 -41 112 -103 150 -139 60 -56
226 -210 325 -301 15 -14 73 -67 128 -119 56 -51 109 -99 118 -105 17 -13 12
-19 -73 -82 -121 -92 -609 -485 -744 -600 -25 -21 -65 -55 -90 -75 -24 -21
-55 -48 -69 -60 -14 -13 -50 -44 -79 -69 -87 -74 -94 -80 -137 -118 -22 -20
-65 -58 -95 -83 -30 -26 -70 -62 -90 -80 -20 -19 -72 -66 -115 -105 -282 -255
-782 -743 -1039 -1015 -103 -108 -263 -282 -295 -319 -12 -14 -36 -41 -54 -60
-346 -374 -980 -1175 -1437 -1815 -62 -88 -117 -161 -121 -163 -5 -2 -8 -8 -8
-13 0 -5 -22 -40 -50 -79 -144 -202 -454 -680 -627 -965 -76 -126 -263 -446
-263 -450 0 -2 -20 -38 -45 -79 -25 -42 -45 -78 -45 -80 0 -2 -17 -35 -38 -73
-82 -145 -143 -266 -212 -419 -40 -88 -85 -188 -102 -224 -17 -36 -47 -103
-68 -150 -21 -47 -49 -111 -64 -142 -14 -31 -64 -157 -110 -280 -149 -395
-199 -618 -141 -626 28 -4 63 59 170 303 55 124 408 827 523 1040 163 303 424
752 621 1070 93 150 414 637 548 830 71 103 147 209 153 215 3 3 10 13 15 22
15 25 166 235 200 278 17 20 37 47 45 59 68 99 569 751 600 781 3 3 30 37 60
75 30 39 57 72 60 75 3 3 71 84 151 180 80 96 152 182 160 190 8 8 41 47 74
85 387 453 974 1060 1449 1500 149 137 153 141 241 220 43 39 86 77 94 85 9 8
86 75 171 149 85 73 169 145 185 159 46 41 270 226 406 336 233 189 705 546
938 710 25 18 102 73 171 121 249 176 703 475 985 648 242 149 582 348 800
468 302 166 875 458 1075 549 41 18 116 52 165 76 74 34 203 92 470 209 586
257 1594 615 2320 824 272 78 868 234 975 255 21 4 159 36 225 51 11 3 34 8
50 10 17 3 38 8 47 11 9 3 27 7 39 9 13 3 75 16 138 30 220 47 687 136 836
158 17 3 57 10 90 16 33 6 78 13 100 16 22 2 49 7 60 9 19 4 126 20 210 31 23
3 50 7 60 9 11 2 43 7 70 10 28 4 61 9 75 11 14 2 48 6 75 10 28 3 84 10 125
15 41 6 95 12 120 15 25 3 61 7 80 10 19 2 58 7 85 10 87 9 139 15 175 20 32
4 60 7 200 20 74 7 173 17 200 20 14 2 68 6 120 10 52 3 106 8 120 10 14 2 68
7 120 10 52 4 106 8 120 10 14 2 79 7 145 10 66 4 140 8 165 10 175 12 468 20
780 20 360 0 559 -6 1050 -30 69 -3 163 -7 210 -10 47 -2 126 -6 175 -10 50
-3 128 -7 175 -10 47 -3 112 -7 145 -10 33 -2 101 -7 150 -11 50 -3 110 -7
135 -9 67 -5 179 -15 225 -19 22 -3 94 -10 160 -16 66 -7 131 -14 145 -15 14
-1 54 -6 90 -9 36 -4 76 -9 90 -11 14 -2 50 -7 80 -10 30 -3 72 -8 92 -11 52
-7 94 -12 156 -20 116 -13 125 28 -82 -384 -170 -341 -265 -525 -356 -695 -21
-38 -60 -113 -88 -165 -125 -238 -381 -701 -439 -792 -12 -21 -23 -40 -23 -42
0 -4 -106 -189 -130 -226 -5 -8 -30 -51 -55 -95 -25 -44 -50 -87 -55 -95 -31
-50 -110 -182 -110 -184 0 -1 -57 -97 -126 -212 -69 -115 -134 -222 -144 -239
-340 -581 -1155 -1846 -1735 -2695 -81 -118 -180 -264 -221 -325 -89 -131
-160 -234 -313 -455 -328 -475 -405 -581 -411 -568 -6 11 -18 68 -46 218 -2
14 -9 48 -14 75 -5 28 -12 61 -14 75 -3 14 -23 122 -45 240 -51 265 -47 247
-56 295 -4 22 -9 47 -11 55 -4 22 -42 221 -48 250 -3 14 -10 52 -16 85 -6 33
-15 80 -20 105 -5 25 -12 56 -14 70 -4 22 -31 168 -42 225 -4 19 -12 65 -20
109 -10 57 -27 85 -59 100 -30 15 -91 16 -544 14 -497 -3 -511 -4 -526 -23
-45 -57 -49 -114 -19 -260 13 -66 31 -155 39 -198 8 -43 16 -81 19 -85 2 -4 7
-26 10 -48 4 -22 8 -49 10 -59 16 -74 47 -221 50 -239 2 -11 14 -66 25 -121
11 -55 22 -111 25 -125 3 -14 23 -113 45 -220 22 -107 42 -206 45 -220 3 -14
9 -45 14 -70 27 -127 54 -258 58 -285 3 -16 9 -46 14 -65 5 -19 12 -48 14 -65
3 -16 8 -41 11 -55 3 -14 7 -37 10 -53 3 -15 12 -60 21 -100 12 -55 156 -756
180 -874 3 -15 -15 -47 -61 -110 -37 -48 -74 -99 -83 -112 -29 -40 -661 -879
-676 -898 -8 -10 -106 -137 -218 -283 -111 -146 -208 -272 -214 -280 -38 -47
-216 -276 -354 -454 -30 -39 -63 -80 -72 -91 -10 -11 -72 -90 -138 -175 -67
-85 -134 -171 -150 -190 -15 -19 -137 -172 -270 -340 -234 -294 -445 -555
-634 -785 -138 -166 -499 -599 -510 -611 -11 -10 -81 -91 -126 -144 -43 -51
-116 -133 -140 -159 -14 -14 -61 -67 -105 -116 -43 -50 -86 -97 -95 -106 -8
-9 -49 -53 -90 -99 -84 -93 -88 -97 -220 -240 -52 -57 -106 -115 -120 -130
-14 -15 -68 -74 -121 -131 -53 -57 -118 -128 -145 -158 -27 -30 -67 -73 -89
-96 -22 -23 -58 -62 -80 -86 -22 -25 -79 -87 -127 -139 -47 -52 -98 -108 -113
-125 -64 -70 -235 -254 -296 -319 -37 -39 -81 -87 -99 -106 -243 -264 -1158
-1193 -1446 -1470 -106 -102 -349 -331 -408 -385 -66 -59 -213 -195 -245 -225
-21 -19 -74 -69 -118 -110 -155 -145 -289 -268 -365 -334 l-77 -67 -53 38
c-202 148 -504 272 -748 308 -25 4 -58 9 -75 11 -46 8 -258 7 -294 -1 -27 -6
-36 -16 -60 -68 -16 -34 -51 -111 -79 -172 -27 -60 -62 -137 -77 -170 -78
-170 -208 -454 -297 -650 -55 -121 -115 -253 -134 -293 -19 -40 -79 -171 -133
-290 -54 -119 -115 -253 -136 -297 -20 -44 -71 -154 -112 -245 -42 -91 -89
-194 -106 -230 -213 -464 -309 -679 -314 -702 -7 -34 11 -58 43 -58 13 0 151
32 306 71 156 39 321 79 368 90 47 12 92 22 100 25 12 3 305 76 360 89 8 2
125 31 260 65 135 34 252 63 260 65 8 2 53 13 100 25 47 12 92 23 100 25 8 2
53 13 100 25 47 12 94 23 105 25 11 3 117 29 235 59 118 30 226 57 240 60 21
4 113 27 170 41 8 3 131 33 273 68 142 36 260 66 262 69 3 3 7 27 10 54 3 27
7 67 10 89 2 22 7 67 10 100 4 33 9 71 11 85 3 14 7 88 8 165 6 262 -38 494
-142 755 -35 87 -96 215 -118 246 -16 23 -19 20 226 235 52 45 100 87 106 93
17 16 135 121 160 143 12 10 64 56 115 103 51 47 116 105 144 130 27 25 61 56
76 70 14 14 64 59 110 101 103 94 161 149 443 413 66 62 371 353 470 449 284
275 925 920 1171 1179 191 200 379 399 396 419 10 11 60 66 112 122 53 56 110
118 127 137 18 19 55 60 84 90 28 31 87 96 131 144 44 49 85 94 90 100 6 6 51
56 100 111 50 55 92 102 95 105 3 3 41 45 85 95 99 111 143 160 175 195 14 15
52 58 85 96 33 37 80 91 105 119 46 52 142 161 180 205 12 14 43 50 70 80 56
65 317 367 339 394 9 10 21 23 26 30 52 59 302 354 410 485 11 13 25 29 30 35
6 6 75 90 155 186 79 96 149 180 155 186 5 6 24 28 40 50 17 21 45 56 64 78
50 62 95 116 136 166 20 25 44 54 53 65 9 11 34 43 56 70 22 28 42 52 46 55 3
3 149 185 324 405 175 220 325 409 334 420 10 11 30 38 47 60 16 22 35 47 42
55 16 19 424 544 552 710 97 125 103 129 114 65 12 -72 38 -214 47 -260 5 -27
11 -61 14 -75 5 -29 64 -344 71 -380 4 -22 46 -252 59 -320 36 -205 52 -250
92 -269 18 -8 172 -11 525 -11 423 0 504 2 529 15 43 22 47 49 24 160 -3 11
-9 43 -15 70 -6 28 -12 61 -15 75 -2 14 -9 45 -14 70 -5 25 -12 56 -14 70 -2
14 -7 36 -10 50 -3 14 -8 36 -10 50 -3 14 -10 50 -16 80 -6 30 -13 66 -16 80
-3 14 -22 113 -44 220 -46 229 -48 241 -55 278 -3 15 -8 38 -11 52 -3 14 -8
36 -10 50 -3 14 -14 68 -24 120 -10 52 -21 107 -25 123 -3 15 -7 38 -10 52 -3
14 -7 35 -9 48 -2 12 -7 33 -10 47 -3 14 -8 36 -10 50 -2 14 -11 59 -20 100
-8 41 -18 87 -21 103 -7 37 -10 52 -61 307 -25 124 -48 236 -50 250 -2 14 -6
35 -9 47 -4 18 20 57 99 165 80 111 368 512 436 608 433 615 905 1310 1250
1840 51 80 126 195 165 255 151 232 555 873 555 880 0 2 13 23 29 47 54 80
443 731 626 1048 183 316 477 844 605 1085 29 55 60 114 70 130 79 137 484
947 620 1240 15 33 43 94 63 135 69 149 195 436 272 620 27 63 52 119 55 123
4 4 58 -1 121 -12 63 -11 130 -22 149 -25 189 -30 517 -97 835 -171 91 -21
159 -38 208 -51 32 -8 66 -17 75 -19 9 -2 44 -11 77 -20 33 -9 103 -27 155
-41 265 -70 737 -213 1095 -333 238 -79 580 -197 610 -210 11 -5 151 -57 310
-116 160 -59 304 -113 320 -120 17 -7 84 -34 150 -60 211 -82 809 -330 939
-390 30 -14 57 -25 60 -25 3 0 36 -14 73 -31 38 -17 145 -65 238 -106 94 -42
230 -104 304 -139 73 -35 135 -64 137 -64 8 0 560 -275 684 -341 168 -88 371
-202 515 -289 61 -36 117 -69 125 -73 8 -4 42 -25 75 -47 33 -22 74 -47 90
-56 17 -9 62 -39 100 -66 236 -167 371 -259 388 -264 27 -8 40 9 33 43 -7 28
-140 167 -251 260 -27 23 -60 51 -73 62 -44 37 -148 114 -302 222 -85 60 -159
112 -165 117 -40 32 -308 196 -426 260 -527 288 -1296 672 -1869 932 -58 26
-134 61 -170 78 -102 47 -622 272 -630 272 -4 0 -20 6 -36 14 -65 31 -314 131
-534 214 -329 125 -681 242 -1125 376 -204 61 -569 165 -635 181 -8 2 -112 28
-230 58 -229 58 -380 95 -419 103 -12 3 -89 20 -170 39 -130 30 -688 145 -704
145 -3 0 7 33 23 73 27 69 113 309 186 522 59 170 155 515 170 611 3 22 8 42
10 45 6 11 80 389 89 457 4 38 16 123 20 150 20 125 28 480 13 587 -17 129
-54 259 -102 354 -62 122 -254 261 -411 297 -32 7 -251 15 -257 9z m-128 -800
c109 -24 216 -133 245 -250 14 -59 15 -71 16 -155 0 -139 -10 -225 -51 -410
-81 -365 -155 -597 -338 -1055 -108 -268 -132 -320 -148 -319 -10 0 -39 3 -64
7 -88 12 -275 38 -300 42 -14 2 -47 7 -75 10 -27 4 -61 8 -75 10 -58 8 -145
19 -245 29 -33 4 -76 9 -95 11 -75 10 -117 15 -174 20 -33 3 -71 7 -85 9 -14
3 -66 7 -115 11 -50 4 -97 8 -106 10 -9 2 -57 6 -106 9 -49 4 -116 9 -149 11
-302 24 -639 41 -923 49 -68 2 -125 6 -128 9 -3 3 86 97 198 209 206 207 255
253 388 368 41 36 77 68 80 71 7 7 193 164 249 209 24 19 48 40 55 45 22 21
353 283 431 341 274 207 697 456 1005 592 263 116 387 144 510 117z"/>
<path d="M9378 18425 c-1 -1 -91 -6 -198 -9 -420 -14 -442 -16 -487 -37 -24
-12 -43 -24 -43 -28 0 -3 -50 -247 -110 -541 -61 -294 -127 -614 -146 -710
-19 -96 -37 -184 -39 -195 -32 -153 -57 -275 -61 -295 -2 -14 -9 -45 -14 -70
-5 -25 -12 -56 -14 -70 -3 -14 -9 -45 -14 -70 -19 -92 -74 -356 -78 -375 -2
-11 -6 -31 -9 -45 -3 -14 -7 -36 -10 -50 -3 -14 -7 -36 -10 -50 -3 -14 -7 -34
-9 -45 -2 -11 -18 -87 -35 -170 -16 -82 -32 -161 -35 -175 -3 -14 -21 -104
-41 -200 -20 -96 -39 -186 -41 -200 -3 -14 -7 -34 -9 -45 -2 -11 -26 -130 -54
-265 -27 -135 -52 -256 -55 -270 -7 -35 -35 -177 -111 -545 -36 -176 -68 -332
-70 -347 -3 -14 -16 -77 -29 -140 -14 -62 -27 -126 -29 -143 -3 -16 -22 -109
-42 -205 -20 -96 -38 -186 -41 -200 -2 -14 -7 -37 -10 -52 -3 -16 -3 -42 1
-58 13 -60 13 -60 559 -60 349 0 502 3 520 11 28 13 52 57 59 109 3 19 16 91
30 160 14 69 30 150 36 180 6 30 13 66 16 80 13 66 37 183 41 208 3 15 21 106
41 202 19 96 37 186 39 200 3 14 11 57 19 95 8 39 16 81 18 95 22 116 127 633
130 636 2 2 164 6 361 9 357 5 358 5 403 -17 63 -31 116 -98 143 -177 l23 -66
-33 -175 c-18 -96 -34 -186 -37 -200 -2 -14 -6 -32 -8 -40 -2 -8 -7 -31 -10
-50 -3 -19 -15 -82 -26 -139 -11 -57 -22 -115 -24 -130 -2 -14 -13 -71 -24
-126 -17 -87 -65 -333 -78 -405 -2 -14 -18 -94 -34 -179 -39 -198 -33 -247 32
-270 43 -15 952 -15 980 -1 33 18 46 59 98 325 28 143 53 269 55 280 2 11 22
110 45 220 22 110 43 216 46 235 3 19 22 109 41 200 19 91 37 181 40 200 3 19
15 76 25 125 31 139 34 171 33 300 -1 103 -5 131 -29 200 -42 124 -111 249
-177 321 l-19 22 53 32 c29 17 81 61 115 96 52 54 75 91 137 217 123 252 192
442 276 753 46 173 114 456 124 519 2 17 16 95 30 175 23 136 28 167 41 255 3
19 7 52 10 73 22 148 26 182 31 217 10 83 15 121 21 150 3 16 5 68 5 115 -1
262 -177 460 -492 553 -119 36 -159 41 -413 53 -67 3 -158 8 -202 10 -89 6
-1221 14 -1227 9z m774 -563 c42 -25 71 -86 65 -138 -6 -60 -30 -92 -85 -116
-58 -25 -53 -19 -57 -64 -3 -22 -8 -59 -11 -84 -3 -25 -8 -61 -10 -80 -1 -19
-6 -54 -9 -77 l-6 -43 220 0 220 0 -5 -27 c-3 -16 -11 -59 -19 -98 -8 -38 -16
-81 -18 -95 -4 -19 -76 -389 -92 -471 -2 -8 -20 -101 -39 -205 -57 -293 -75
-370 -106 -438 -34 -74 -69 -107 -145 -135 -51 -19 -77 -21 -301 -21 -154 0
-263 4 -292 12 -97 24 -152 96 -157 206 -3 67 4 109 84 522 21 113 42 225 46
250 4 24 8 47 10 51 2 3 7 21 10 40 8 50 37 201 41 222 10 44 12 55 18 102 4
28 11 56 15 63 5 8 68 14 211 18 113 3 205 6 207 7 3 3 8 35 33 196 20 131 20
134 2 155 -29 33 -52 91 -52 133 0 107 125 172 222 115z"/>
<path d="M9595 16841 c-89 -55 -74 -192 24 -222 80 -24 151 30 151 114 0 100
-94 159 -175 108z"/>
<path d="M10053 16834 c-86 -44 -81 -183 8 -218 49 -20 72 -20 108 -1 34 17
73 90 66 125 -16 86 -107 133 -182 94z"/>
<path d="M12788 18390 c-70 -3 -131 -9 -136 -15 -8 -8 -35 -133 -78 -350 -2
-11 -6 -29 -8 -40 -2 -11 -18 -92 -36 -180 -17 -88 -34 -169 -36 -180 -2 -11
-6 -31 -9 -45 -8 -41 -186 -923 -191 -945 -3 -11 -7 -35 -9 -54 -3 -18 -7 -36
-9 -40 -3 -3 -7 -27 -11 -51 -4 -25 -13 -76 -21 -115 -8 -38 -17 -86 -20 -105
-3 -19 -8 -38 -10 -41 -2 -3 -6 -21 -9 -40 -3 -19 -10 -52 -15 -74 -5 -22 -12
-56 -15 -75 -3 -19 -20 -100 -36 -180 -16 -80 -32 -156 -35 -170 -2 -14 -7
-36 -9 -50 -3 -14 -7 -34 -9 -45 -2 -11 -29 -144 -59 -295 -31 -151 -58 -286
-60 -300 -3 -14 -19 -92 -36 -175 -17 -82 -33 -161 -35 -175 -3 -14 -23 -115
-45 -225 -23 -110 -44 -213 -46 -230 -3 -16 -8 -37 -10 -45 -2 -8 -7 -31 -10
-50 -3 -19 -8 -42 -10 -50 -2 -8 -7 -28 -10 -45 -4 -27 -142 -709 -150 -745
-1 -8 -10 -53 -19 -100 -18 -96 -21 -109 -33 -165 -20 -84 5 -172 53 -194 18
-8 386 -11 1374 -11 1213 0 1350 2 1364 16 9 8 16 17 16 20 0 5 133 499 185
684 19 69 37 136 40 150 7 28 -9 80 -28 92 -7 4 -407 8 -889 8 -483 0 -878 1
-878 3 0 2 9 45 21 97 11 52 22 104 25 115 2 11 6 31 9 45 7 33 14 68 21 105
3 17 10 50 15 75 6 25 13 56 15 70 3 14 14 68 25 120 11 52 45 214 75 360 29
146 56 275 59 288 l6 23 232 -6 c1358 -32 1228 -37 1251 48 22 77 56 205 70
267 8 30 44 172 81 315 38 143 68 273 68 289 -1 15 -10 38 -22 50 l-22 21
-735 -3 -734 -2 5 22 c2 13 12 66 20 118 9 52 34 190 55 305 21 116 41 226 44
245 3 19 8 46 11 60 3 14 10 52 15 85 6 33 15 80 20 105 5 25 19 101 31 170
12 69 28 133 37 143 14 16 70 17 908 17 l893 0 19 25 c11 14 23 42 27 62 5 29
63 254 110 433 12 44 67 257 70 270 2 8 13 49 24 90 11 41 22 87 25 102 6 36
-25 75 -72 88 -38 11 -2462 20 -2714 10z"/>
<path d="M19732 18359 c-58 -12 -50 12 -153 -454 -86 -390 -108 -490 -113
-517 -3 -13 -21 -95 -41 -183 -19 -88 -38 -173 -41 -189 -3 -16 -7 -32 -9 -36
-2 -4 -7 -21 -10 -38 -3 -17 -39 -182 -80 -368 -41 -185 -77 -346 -79 -358 -2
-11 -10 -43 -16 -71 -6 -27 -14 -61 -16 -75 -3 -14 -7 -33 -10 -42 -3 -9 -7
-25 -9 -35 -3 -15 -36 -167 -51 -237 -3 -11 -7 -32 -10 -46 -3 -14 -9 -41 -14
-60 -5 -19 -11 -46 -14 -60 -2 -14 -16 -77 -31 -140 -14 -63 -28 -126 -31
-140 -4 -22 -12 -62 -20 -95 -12 -50 -66 -295 -70 -314 -3 -12 -12 -53 -20
-90 -9 -36 -18 -77 -21 -91 -4 -22 -170 -768 -177 -795 -2 -5 -6 -28 -11 -50
-4 -22 -9 -47 -11 -55 -6 -29 -43 -199 -119 -540 -43 -190 -78 -365 -78 -390
-1 -48 16 -80 59 -113 20 -15 89 -17 700 -23 1352 -12 1754 -11 1764 6 12 17
27 66 144 465 20 66 54 181 76 255 22 74 40 153 40 175 0 38 -19 80 -44 97 -6
4 -336 8 -734 8 l-722 0 5 23 c2 12 18 81 34 152 17 72 32 141 35 155 2 14 17
77 31 140 15 63 29 124 31 135 2 11 15 72 30 135 14 63 27 122 29 130 2 8 15
67 29 130 15 63 28 124 30 135 3 11 11 49 20 85 8 36 17 76 20 90 2 14 17 77
31 140 15 63 29 126 31 139 3 13 12 51 20 85 8 34 17 75 20 91 3 17 17 77 30
135 14 58 32 137 40 175 9 39 17 77 19 85 54 238 97 431 100 453 2 15 6 31 9
36 3 4 8 22 11 39 3 18 12 62 21 99 9 38 18 77 20 88 4 22 82 372 231 1030
144 643 140 619 124 648 -8 14 -27 31 -42 38 -33 13 -929 21 -987 8z"/>
<path d="M26503 18345 c-20 -8 -39 -27 -48 -47 -8 -18 -42 -161 -75 -318 -74
-345 -111 -517 -205 -955 -21 -93 -39 -181 -42 -195 -2 -14 -9 -45 -14 -70
-16 -70 -19 -83 -25 -120 -3 -19 -8 -38 -10 -41 -2 -3 -5 -19 -8 -35 -3 -16
-42 -197 -86 -403 -44 -206 -82 -385 -84 -398 -3 -13 -7 -31 -10 -41 -3 -9 -7
-28 -10 -42 -2 -14 -11 -56 -20 -95 -9 -38 -18 -82 -21 -97 -12 -64 -16 -84
-21 -100 -3 -10 -8 -30 -11 -45 -3 -16 -6 -32 -7 -38 -3 -9 -15 -70 -21 -105
-2 -8 -9 -37 -15 -65 -10 -43 -63 -290 -76 -350 -2 -11 -15 -74 -30 -140 -14
-66 -27 -129 -30 -140 -2 -11 -17 -81 -33 -155 -16 -74 -32 -146 -35 -160 -3
-14 -7 -34 -9 -45 -19 -84 -83 -383 -107 -496 -11 -53 -27 -128 -36 -166 -9
-37 -18 -77 -20 -88 -9 -45 -95 -444 -107 -495 -15 -62 -7 -108 20 -128 13
-10 217 -12 968 -11 899 1 955 2 1043 20 88 19 198 57 272 96 114 60 444 275
535 350 141 115 210 184 276 277 66 93 121 203 157 316 53 164 161 581 176
684 4 21 8 48 11 60 3 12 7 32 9 46 3 14 16 84 31 155 40 195 40 351 -1 471
-16 48 -115 197 -173 262 -16 18 -46 46 -66 62 l-36 28 38 12 c129 41 315 206
382 339 44 87 95 257 152 507 68 297 106 469 167 739 23 99 57 250 77 335 47
205 52 237 49 317 -6 151 -22 207 -77 269 -89 102 -165 160 -284 217 l-68 32
-1205 2 c-1021 2 -1210 0 -1237 -12z m1753 -1072 c-8 -28 -86 -351 -102 -423
-8 -36 -21 -90 -29 -120 -13 -48 -71 -287 -80 -330 -11 -53 -21 -80 -43 -115
-28 -45 -28 -45 -98 -103 -87 -72 -91 -72 -496 -72 l-360 0 5 23 c8 32 89 389
92 407 2 9 14 67 28 130 14 63 47 210 72 325 25 116 51 229 57 253 l10 42 475
0 c447 0 474 -1 469 -17z m-638 -2313 c57 -41 71 -72 67 -151 -2 -35 -6 -75
-9 -89 -6 -26 -22 -105 -30 -150 -3 -14 -8 -38 -11 -55 -3 -16 -8 -39 -9 -50
-2 -11 -7 -31 -10 -45 -3 -14 -8 -36 -10 -50 -3 -14 -7 -36 -10 -50 -4 -14
-13 -59 -21 -100 -8 -41 -16 -85 -19 -96 -2 -12 -7 -39 -10 -60 -9 -57 -60
-159 -97 -195 -85 -83 -281 -115 -589 -95 -63 4 -131 9 -150 11 -19 3 -60 7
-90 10 -30 4 -58 9 -62 13 -4 4 2 45 12 92 10 47 21 96 24 110 2 14 14 68 26
120 22 96 27 119 34 155 2 11 23 102 45 202 22 100 42 192 45 205 3 13 18 83
35 157 17 73 31 135 31 137 0 2 173 4 383 4 l384 0 41 -30z"/>
<path d="M23555 18328 c-33 -19 -53 -49 -86 -128 -17 -41 -37 -88 -44 -105 -8
-16 -46 -109 -85 -205 -40 -96 -78 -188 -86 -205 -20 -46 -135 -319 -138 -330
-2 -5 -8 -21 -13 -35 -86 -204 -175 -418 -320 -765 -96 -231 -181 -433 -188
-450 -7 -16 -29 -70 -50 -120 -20 -49 -42 -103 -50 -120 -7 -16 -41 -97 -75
-180 -34 -82 -68 -163 -75 -180 -8 -16 -70 -167 -140 -335 -69 -168 -136 -330
-150 -360 -13 -30 -58 -138 -100 -240 -42 -102 -83 -198 -90 -215 -22 -50
-109 -260 -110 -265 -1 -3 -9 -23 -19 -45 -9 -22 -33 -78 -52 -125 -19 -47
-41 -98 -48 -115 -8 -16 -34 -79 -59 -140 -166 -399 -235 -564 -280 -670 -57
-134 -66 -196 -33 -221 17 -12 101 -14 497 -14 526 0 492 -4 523 63 8 18 58
138 111 267 53 129 103 249 111 267 7 17 14 34 14 37 0 3 9 25 19 49 11 23 47
110 81 192 33 83 69 170 80 195 l19 45 428 0 c235 0 461 -2 501 -3 l73 -4 -5
-41 c-5 -40 -8 -72 -21 -212 -3 -33 -8 -79 -10 -102 -10 -85 -14 -129 -20
-188 -3 -33 -8 -85 -11 -115 -20 -199 -24 -233 -29 -294 -3 -33 0 -75 6 -93
21 -64 16 -63 553 -63 462 0 486 1 495 18 15 28 20 65 26 187 3 61 7 148 10
195 2 47 7 135 10 195 3 61 7 151 10 200 3 50 7 135 10 190 10 211 16 333 20
410 5 86 12 221 20 405 3 63 8 158 11 210 7 127 13 242 19 375 2 61 7 155 10
210 3 55 7 141 10 190 3 50 7 140 10 200 2 61 7 151 9 200 8 145 22 420 31
600 6 138 13 271 20 400 11 215 15 294 20 405 3 63 8 151 10 195 9 178 16 314
20 390 2 44 7 137 10 207 7 139 3 158 -45 183 -25 13 -119 15 -687 15 -478 -1
-663 -4 -678 -12z m431 -1385 c-3 -21 -8 -74 -11 -118 -3 -44 -8 -96 -10 -115
-3 -19 -7 -66 -10 -105 -3 -38 -8 -90 -10 -115 -3 -25 -7 -74 -10 -110 -3 -36
-7 -90 -10 -120 -3 -30 -7 -80 -10 -110 -3 -30 -7 -77 -9 -105 -3 -27 -8 -79
-11 -115 -3 -36 -8 -81 -10 -100 -2 -19 -7 -71 -11 -115 -3 -44 -7 -91 -9
-105 -2 -14 -7 -70 -11 -125 -3 -55 -8 -109 -10 -120 -2 -11 -7 -60 -10 -109
-3 -49 -7 -97 -9 -106 -2 -9 -6 -56 -10 -106 -4 -49 -9 -100 -10 -114 -2 -14
-4 -31 -4 -37 -1 -10 -77 -13 -346 -13 -190 0 -345 2 -345 4 0 4 163 399 195
471 7 17 32 75 55 130 23 55 46 111 52 125 6 14 17 37 25 52 7 15 13 29 13 30
-2 4 180 444 245 593 14 33 76 181 206 492 46 112 86 203 87 203 2 0 1 -17 -2
-37z"/>
</g>
</svg>
